<svg width="87" height="100" viewBox="0 0 87 100" fill="none" xmlns="http://www.w3.org/2000/svg">
<path d="M13.74 51.5891C17.1 44.5691 20.83 41.1091 28.08 33.2891M13.07 52.9791C15.34 47.3291 19.78 42.2391 29.12 32.9591M10.65 57.8191C17.37 50.7291 24.64 45.1291 33.61 30.3891M11.71 57.3591C20.86 47.3791 28.85 38.9191 34.82 32.1991M11.37 65.7491C17.62 57.5591 24.26 46.5291 42.28 29.9091M12.62 63.4891C22.9 52.0991 32.8 41.6891 41.84 31.5991M9.74 72.4191C21.82 60.0891 31.28 46.9991 45.9 34.3991M12.02 71.1691C18.49 64.3091 25.67 56.0491 44.14 33.1991M11.78 72.8791C26.91 61.8391 36.39 49.3491 46.62 36.3091M13.9 73.8791C22.53 65.9991 30.06 57.2591 47.4 35.8691M18.36 77.1491C25.5 65.4791 37.89 52.9191 52.14 37.6591M15.95 77.5291C25.07 67.5691 31.73 59.9691 51.54 38.6091M18.18 82.0291C30.15 65.5491 45.83 50.4591 52.83 38.8591M19.88 79.8391C27.37 72.8691 34.39 63.7591 53.15 41.1391M22.2 82.4491C32.09 70.5791 42.22 63.5291 58.8 43.1391M21.19 83.5191C31.4 72.0891 41.67 62.0291 57.9 43.9191M23.53 86.4391C39.17 70.1691 51.65 55.3891 57.75 45.1291M24.32 86.7591C32.8 77.4491 40.49 69.0391 59.63 46.4791M29.79 87.6291C42.26 73.0991 54.78 61.4491 62.04 49.5191M30.33 87.5591C35.67 79.1591 43.54 70.9291 60.83 49.7591M33.67 86.2491C40.31 78.9991 46.43 69.5791 61.85 55.8991M34.84 86.3591C41.87 79.5391 47.81 71.1491 63.01 54.6191M38.01 88.9491C45.59 76.6591 54.85 69.4891 64.95 57.1491M38.34 87.4991C49.49 78.1891 57.33 66.3791 63.89 59.9391M44.21 90.3791C49.34 83.2491 51.16 80.8391 61.94 68.8791M43.94 88.6091C47.61 85.1591 51.78 79.9691 61.85 67.6991" stroke="#E91212" stroke-width="0.5" stroke-linecap="round"/>
<path d="M39.63 29.9691C44.96 30.3891 50.71 35.8291 54.56 40.4791C58.41 45.1391 62.46 51.5491 62.74 57.8891C63.02 64.2291 59.6 73.4091 56.25 78.5091C52.91 83.6091 47.95 87.1791 42.68 88.4791C37.4 89.7791 29.88 89.1391 24.61 86.2991C19.34 83.4691 13.45 77.4691 11.06 71.4691C8.67 65.4691 8.49 56.3891 10.28 50.2891C12.06 44.1991 16.23 37.8791 21.77 34.8991C27.32 31.9091 39.08 32.4991 43.55 32.3891C48.02 32.2791 48.77 33.8591 48.6 34.2391M41.33 31.7291C46.94 32.6091 53.14 37.1591 56.43 41.9391C59.72 46.7191 61.03 54.1191 61.06 60.4091C61.1 66.6991 59.9 75.0291 56.66 79.6991C53.43 84.3691 47.33 87.4591 41.65 88.4391C35.98 89.4091 27.66 88.8791 22.6 85.5491C17.54 82.2191 12.99 74.6491 11.29 68.4691C9.58 62.2891 10.2 54.3291 12.35 48.4591C14.5 42.5991 19.68 36.3891 24.2 33.2791C28.73 30.1591 36.62 29.9591 39.49 29.7691C42.36 29.5791 41.34 31.4091 41.43 32.1591" stroke="#350C77" stroke-linecap="round"/>
<path d="M48.4289 45.6175C52.9289 39.7875 79.9589 11.2775 76.6489 10.0475C73.3489 8.80748 36.5089 33.7075 28.6089 38.2075M50.3889 44.8475C54.6189 39.2275 79.1389 12.9775 75.4089 11.5575C71.6689 10.1375 35.5589 31.9275 27.9889 36.3375" stroke="#703BB3" stroke-linecap="round"/>
<path d="M32.4433 59.5619C33.0433 62.1619 32.0733 72.8919 35.9633 74.2619C39.8433 75.6319 52.4633 68.9119 55.7633 67.8019M34.1833 58.5419C34.7833 61.3919 32.0333 74.4619 35.5133 75.6619C39.0033 76.8519 51.6633 66.8519 55.1033 65.7119" stroke="#549F30" stroke-linecap="round"/>
<path d="M16.5411 56.4086C18.6111 54.8886 20.9411 52.5586 23.9011 48.7786M16.4011 55.9786C18.4411 53.7986 20.5311 52.0286 23.9911 47.3686M19.3811 59.6886C23.0111 55.5386 25.4411 53.7486 27.3811 50.5286M19.3911 58.5686C21.9411 56.2386 23.3811 54.1686 27.5911 49.8886" stroke="#CED4DA" stroke-width="0.5" stroke-linecap="round"/>
<path d="M22.0511 46.4386C23.1011 46.4786 24.2911 46.2086 24.9711 47.1986C25.6611 48.1886 26.0611 50.8986 26.1411 52.3586C26.2211 53.8286 26.0911 55.0186 25.4511 55.9786C24.8111 56.9286 23.2511 57.6886 22.3011 58.0786C21.3511 58.4686 20.7711 58.7986 19.7611 58.3186C18.7511 57.8286 16.6811 56.4686 16.2411 55.1786C15.8111 53.8786 16.7411 51.7886 17.1511 50.5686C17.5611 49.3386 17.7311 48.6386 18.7011 47.8186C19.6611 47.0086 22.2111 45.6586 22.9611 45.6686C23.7011 45.6686 23.3011 47.7086 23.1611 47.8686M22.2111 46.3686C22.7811 46.2486 22.7711 46.6786 23.3011 47.8186C23.8311 48.9486 25.3911 51.6086 25.3911 53.1886C25.3811 54.7586 24.1211 56.2686 23.2911 57.2586C22.4611 58.2486 21.3811 59.0786 20.4211 59.1486C19.4711 59.2086 18.2711 58.3086 17.5911 57.6386C16.9111 56.9786 16.5511 56.5886 16.3511 55.1486C16.1611 53.6986 15.9511 50.4886 16.4311 48.9786C16.9111 47.4686 18.1411 46.3186 19.2211 46.0786C20.3011 45.8286 22.5811 47.5086 22.8911 47.5186C23.2011 47.5286 21.4511 46.2786 21.0711 46.1586" stroke="#FB7800" stroke-linecap="round"/>
</svg>
