<svg version="1.1" xmlns="http://www.w3.org/2000/svg" viewBox="0 0 86.9315412365944 99.10794563311129" width="86.9315412365944" height="99.10794563311129">
  <rect x="0" y="0" width="86.9315412365944" height="99.10794563311129" ></rect><g stroke-linecap="round" transform="translate(10 30.21905674422237) rotate(0 26.111111111111086 29.444444444444457)"><path d="M11.64 4.82 C11.64 4.82, 11.64 4.82, 11.64 4.82 M11.64 4.82 C11.64 4.82, 11.64 4.82, 11.64 4.82 M3.74 21.37 C7.1 14.35, 10.83 10.89, 18.08 3.07 M3.07 22.76 C5.34 17.11, 9.78 12.02, 19.12 2.74 M0.65 27.6 C7.37 20.51, 14.64 14.91, 23.61 0.17 M1.71 27.14 C10.86 17.16, 18.85 8.7, 24.82 1.98 M1.37 35.53 C7.62 27.34, 14.26 16.31, 32.28 -0.31 M2.62 33.27 C12.9 21.88, 22.8 11.47, 31.84 1.38 M-0.26 42.2 C11.82 29.87, 21.28 16.78, 35.9 4.18 M2.02 40.95 C8.49 34.09, 15.67 25.83, 34.14 2.98 M1.78 42.66 C16.91 31.62, 26.39 19.13, 36.62 6.09 M3.9 43.66 C12.53 35.78, 20.06 27.04, 37.4 5.65 M8.36 46.93 C15.5 35.26, 27.89 22.7, 42.14 7.44 M5.95 47.31 C15.07 37.35, 21.73 29.75, 41.54 8.39 M8.18 51.81 C20.15 35.33, 35.83 20.24, 42.83 8.64 M9.88 49.62 C17.37 42.65, 24.39 33.54, 43.15 10.92 M12.2 52.23 C22.09 40.36, 32.22 33.31, 48.8 12.92 M11.19 53.3 C21.4 41.87, 31.67 31.81, 47.9 13.7 M13.53 56.22 C29.17 39.95, 41.65 25.17, 47.75 14.91 M14.32 56.54 C22.8 47.23, 30.49 38.82, 49.63 16.26 M19.79 57.41 C32.26 42.88, 44.78 31.23, 52.04 19.3 M20.33 57.34 C25.67 48.94, 33.54 40.71, 50.83 19.54 M23.67 56.03 C30.31 48.78, 36.43 39.36, 51.85 25.68 M24.84 56.14 C31.87 49.32, 37.81 40.93, 53.01 24.4 M28.01 58.73 C35.59 46.44, 44.85 39.27, 54.95 26.93 M28.34 57.28 C39.49 47.97, 47.33 36.16, 53.89 29.72 M34.21 60.16 C39.34 53.03, 41.16 50.62, 51.94 38.66 M33.94 58.39 C37.61 54.94, 41.78 49.75, 51.85 37.48" stroke="#ced4da" stroke-width="0.5" fill="none"></path><path d="M29.63 -0.25 C34.96 0.17, 40.71 5.61, 44.56 10.26 C48.41 14.92, 52.46 21.33, 52.74 27.67 C53.02 34.01, 49.6 43.19, 46.25 48.29 C42.91 53.39, 37.95 56.96, 32.68 58.26 C27.4 59.56, 19.88 58.92, 14.61 56.08 C9.34 53.25, 3.45 47.25, 1.06 41.25 C-1.33 35.25, -1.51 26.17, 0.28 20.07 C2.06 13.98, 6.23 7.66, 11.77 4.68 C17.32 1.69, 29.08 2.28, 33.55 2.17 C38.02 2.06, 38.77 3.64, 38.6 4.02 M31.33 1.51 C36.94 2.39, 43.14 6.94, 46.43 11.72 C49.72 16.5, 51.03 23.9, 51.06 30.19 C51.1 36.48, 49.9 44.81, 46.66 49.48 C43.43 54.15, 37.33 57.24, 31.65 58.22 C25.98 59.19, 17.66 58.66, 12.6 55.33 C7.54 52, 2.99 44.43, 1.29 38.25 C-0.42 32.07, 0.2 24.11, 2.35 18.24 C4.5 12.38, 9.68 6.17, 14.2 3.06 C18.73 -0.06, 26.62 -0.26, 29.49 -0.45 C32.36 -0.64, 31.34 1.19, 31.43 1.94" stroke="#495057" stroke-width="1" fill="none"></path></g><g stroke-linecap="round"><g transform="translate(48.888888888888914 45.087477796854046) rotate(0 3.571763783086851 -17.2790144229092)"><path d="M-0.46 0.53 C4.04 -5.3, 31.07 -33.81, 27.76 -35.04 C24.46 -36.28, -12.38 -11.38, -20.28 -6.88 M1.5 -0.24 C5.73 -5.86, 30.25 -32.11, 26.52 -33.53 C22.78 -34.95, -13.33 -13.16, -20.9 -8.75" stroke="#495057" stroke-width="1" fill="none"></path></g></g><mask></mask><g stroke-linecap="round"><g transform="translate(33.33333333333337 59.531922241298616) rotate(0 10.770315617240101 7.616222496808518)"><path d="M-0.89 0.03 C-0.29 2.63, -1.26 13.36, 2.63 14.73 C6.51 16.1, 19.13 9.38, 22.43 8.27 M0.85 -0.99 C1.45 1.86, -1.3 14.93, 2.18 16.13 C5.67 17.32, 18.33 7.32, 21.77 6.18" stroke="#495057" stroke-width="1" fill="none"></path></g></g><mask></mask><g stroke-linecap="round" transform="translate(16.111111111111143 46.19858890796513) rotate(0 4.7222222222222 6.388888888888914)"><path d="M2.28 1.98 C2.28 1.98, 2.28 1.98, 2.28 1.98 M2.28 1.98 C2.28 1.98, 2.28 1.98, 2.28 1.98 M0.43 10.21 C2.5 8.69, 4.83 6.36, 7.79 2.58 M0.29 9.78 C2.33 7.6, 4.42 5.83, 7.88 1.17 M3.27 13.49 C6.9 9.34, 9.33 7.55, 11.27 4.33 M3.28 12.37 C5.83 10.04, 7.27 7.97, 11.48 3.69" stroke="#ced4da" stroke-width="0.5" fill="none"></path><path d="M5.94 0.24 C6.99 0.28, 8.18 0.01, 8.86 1 C9.55 1.99, 9.95 4.7, 10.03 6.16 C10.11 7.63, 9.98 8.82, 9.34 9.78 C8.7 10.73, 7.14 11.49, 6.19 11.88 C5.24 12.27, 4.66 12.6, 3.65 12.12 C2.64 11.63, 0.57 10.27, 0.13 8.98 C-0.3 7.68, 0.63 5.59, 1.04 4.37 C1.45 3.14, 1.62 2.44, 2.59 1.62 C3.55 0.81, 6.1 -0.54, 6.85 -0.53 C7.59 -0.53, 7.19 1.51, 7.05 1.67 M6.1 0.17 C6.67 0.05, 6.66 0.48, 7.19 1.62 C7.72 2.75, 9.28 5.41, 9.28 6.99 C9.27 8.56, 8.01 10.07, 7.18 11.06 C6.35 12.05, 5.27 12.88, 4.31 12.95 C3.36 13.01, 2.16 12.11, 1.48 11.44 C0.8 10.78, 0.44 10.39, 0.24 8.95 C0.05 7.5, -0.16 4.29, 0.32 2.78 C0.8 1.27, 2.03 0.12, 3.11 -0.12 C4.19 -0.37, 6.47 1.31, 6.78 1.32 C7.09 1.33, 5.34 0.08, 4.96 -0.04" stroke="#495057" stroke-width="1" fill="none"></path></g></svg>